<?xml version="1.0" encoding="UTF-8"?>
<svg width="28px" height="28px" viewBox="0 0 28 28" version="1.1" xmlns="http://www.w3.org/2000/svg" xmlns:xlink="http://www.w3.org/1999/xlink">
    <!-- Generator: Sketch 48.1 (47250) - http://www.bohemiancoding.com/sketch -->
    <title>Page 1</title>
    <desc>Created with Sketch.</desc>
    <defs></defs>
    <g id="МАКС" stroke="none" stroke-width="1" fill="none" fill-rule="evenodd" transform="translate(-118.000000, -533.000000)">
        <g id="Group-7" transform="translate(58.000000, 476.000000)">
            <g id="Page-1" transform="translate(61.000000, 58.000000)">
                <path d="M26,13 C26,20.1797143 20.1799796,26 13,26 C5.82028571,26 0,20.1797143 0,13 C0,5.82028571 5.82028571,0 13,0 C20.1799796,0 26,5.82028571 26,13 Z" id="Stroke-1" stroke="#FFFFFF"></path>
                <path d="M12,19.0096168 C12,18.7240716 12.0836437,18.4843912 12.2512174,18.2905755 C12.4185047,18.0970558 12.6665712,18 12.9957032,18 C13.3242624,18 13.5737611,18.0970558 13.7444858,18.2905755 C13.9149241,18.4843912 14,18.7240716 14,19.0096168 C14,19.295162 13.9149241,19.5318834 13.7444858,19.7191892 C13.5737611,19.9061991 13.3242624,20 12.9957032,20 C12.6665712,20 12.4185047,19.9061991 12.2512174,19.7191892 C12.0836437,19.5318834 12,19.295162 12,19.0096168 Z M12.4338645,16 C12.4455059,15.3300722 12.5229347,14.8012377 12.6669632,14.4127008 C12.8107209,14.0244291 13.1041925,13.5937233 13.5473778,13.1208487 L14.6782178,11.9812288 C15.1614712,11.44709 15.4032333,10.8731693 15.4032333,10.2599971 C15.4032333,9.66936791 15.2448561,9.2068366 14.9286433,8.87213791 C14.6118889,8.53743922 14.1516476,8.37008988 13.5473778,8.37008988 C12.9604347,8.37008988 12.488552,8.52232209 12.1320003,8.82652129 C11.7749072,9.13098571 11.596496,9.53994401 11.596496,10.0526006 L10,10.0526006 C10.0113707,9.13947252 10.3435566,8.40244585 10.9965579,7.84152055 C11.6495591,7.28059526 12.4999226,7 13.5473778,7 C14.634901,7 15.4822865,7.28589951 16.0895343,7.85716812 C16.6965114,8.42843672 17,9.21214086 17,10.2082805 C17,11.1932813 16.5338026,12.1642257 15.6016785,13.1208487 L14.6606204,14.0326507 C14.2407178,14.4885516 14.0306312,15.1444232 14.0306312,16 L12.4338645,16 Z" id="Fill-3" fill="#FFFFFF"></path>
            </g>
        </g>
    </g>
</svg>