<?xml version="1.0" encoding="UTF-8"?>
<svg width="39px" height="39px" viewBox="0 0 39 39" version="1.1" xmlns="http://www.w3.org/2000/svg" xmlns:xlink="http://www.w3.org/1999/xlink">
    <!-- Generator: Sketch 48.1 (47250) - http://www.bohemiancoding.com/sketch -->
    <title>Page 1</title>
    <desc>Created with Sketch.</desc>
    <defs>
        <polygon id="path-1" points="0 6.19047619e-05 0 39 38.9998143 39 38.9998143 6.19047619e-05"></polygon>
    </defs>
    <g id="Союз-7К" stroke="none" stroke-width="1" fill="none" fill-rule="evenodd" transform="translate(-533.000000, -475.000000)">
        <g id="Page-1" transform="translate(533.000000, 475.000000)">
            <g id="Group-3">
                <mask id="mask-2" fill="white">
                    <use xlink:href="#path-1"></use>
                </mask>
                <g id="Clip-2"></g>
                <path d="M25.9812429,18.0948238 C25.7212429,8.7100619 22.9169571,1.85720476 20.3918619,1.85720476 C17.7726714,1.85720476 14.8569571,9.1000619 14.8569571,19.5000619 C14.8569571,22.0133952 15.0309095,24.3410143 15.3212429,26.4272048 C16.6398143,26.5572048 18.0388619,26.6314905 19.4998143,26.6314905 C30.0545762,26.6314905 37.1426714,22.9357762 37.1426714,19.4753 C37.1426714,17.1910143 34.1409095,14.9314905 29.311719,13.5757762 L29.8131476,11.7867286 C35.5641,13.4024429 38.9998143,16.2748238 38.9998143,19.4753 C38.9998143,24.532919 30.4321952,28.4886333 19.4998143,28.4886333 C18.1756714,28.4886333 16.8812429,28.432919 15.6369571,28.3153 C16.6775762,33.762919 18.6021952,37.142919 20.3918619,37.142919 C22.2360048,37.142919 24.0683857,33.7938714 25.0526714,28.6124429 L26.8788619,28.9591095 C25.6469571,35.4343476 23.3379095,39.0000619 20.3918619,39.0000619 C17.0675762,39.0000619 14.8074333,34.1962524 13.7241,28.1048238 C5.69505238,26.9843476 -0.000185714286,23.5919667 -0.000185714286,19.4753 C-0.000185714286,16.3367286 3.31171905,13.5881571 8.05981429,12.6224429 L8.05981429,14.522919 C4.14743333,15.4143476 1.85695714,17.6119667 1.85695714,19.4753 C1.85695714,22.217681 6.32029048,25.1148238 13.4331476,26.1919667 C13.1428143,24.0253 12.9998143,21.7472048 12.9998143,19.5000619 C12.9998143,10.0472048 15.5874333,6.19047619e-05 20.3918619,6.19047619e-05 C23.8702905,6.19047619e-05 27.5666238,6.32672857 27.8383857,18.0948238" id="Fill-1" fill="#F1F1F2" mask="url(#mask-2)"></path>
            </g>
            <polyline id="Fill-4" fill="#F1F1F2" points="7.67823938 14.3413022 6.2971637 15.8674119 7.62057197 17 11 13.2801077 7.16688243 10 6 11.2845137 7.5676121 12.6312826"></polyline>
            <polyline id="Fill-6" fill="#F1F1F2" points="25.6453058 18.5193705 24.2083707 17 23 18.283293 26.500285 22 30 18.283293 28.7916293 17 27.3552642 18.5193705"></polyline>
        </g>
    </g>
</svg>